{"title":"fassinating.com - aleta ocean March update 3 HD @ 720p","uid":5695382,"size":1167806277,"categoryP":"video","categoryS":"hd___movies","magnet":"?xt=urn:btih:7b78833a16ba8b996b955c49675b7ccb6d56091c&amp;dn=fassinating.com+-+aleta+ocean+March+update+3+HD+%40+720p&amp;tr=udp%3A%2F%2Ftracker.openbittorrent.com%3A80&amp;tr=udp%3A%2F%2Fopen.demonii.com%3A1337&amp;tr=udp%3A%2F%2Ftracker.coppersurfer.tk%3A6969&amp;tr=udp%3A%2F%2Fexodus.desync.com%3A6969","seeders":0,"leechers":1,"uploader":"youssef0eddoumali","files":159,"time":1279285846,"description":"*****DIARY OF A GPGPU USER*****\n\nwow today one of my dreams just come true an antivirus engine using GPGPU is out and \n\nis already 100 times faster than a regular engine using only cpu plus it's open \n\nsource which means free\n\ncheck it out:\n  &lt;a href=&quot;\nhttp://gpgpu.org/2010/07/04/gravity-antivirus-engine&quot; rel=&quot;nofollow&quot; target=&quot;_NEW&quot;&gt;\nhttp://gpgpu.org/2010/07/04/gravity-antivirus-engine&lt;/a&gt;\n\n---------------------------------------------------------------------------------\n\nHey people Out There Just To Let You KNow i'm so glad of my self Just Because of this high end personal supercomputer configuration:\n\n-Motherboard (Dual Cpu Socket 1366) = SuperMicro X8DAH+F\n\n-CPU = 2 x Intel Xeon 5560 (a total of 8 physical core = 16 threads)\n\nRaid Controller = 3Ware Raid Card\n\nHDD = 8 x 2 TO Mounted In Raid 6\n\nRam = 4 x 4 GB = 16 GB\n\nChassis = Zalman\n\nSSD = 2 x 80 GB Intel SSD Mounted in Raid 1 (System Volume)\n\nGPU = ATI 5970 (That's My Baby, The Important Piece In My Config After The HDDs) It Developps Approximatively 5 Teraflops Of Raw Computing Power\n\nBut Even If I Have All This GPGPU Computing Power Inside The GPU, I'm Still Waiting For Software To Take Advantage o this horsepower And here is my Dream list \n \nfor GPGPU Application:\n\n-Antivirus\n\n-Hash Check Functionnality Inside Most P2P Application (Torrent And Edonkey Network)\n\n-Real Time Encoding Inside Streaming Application Especially (mycast orb Stream)\n\n-archive applicaion (like winrar and 7zip) even if this compression is not a 100% parallel task, still some task can be handled by the GPU\n\n-HD Decoding Is Already Implemented But Just For h.264 And VC-1 Even If All The Functinnalities Are Handled By The GPU The xvid and divx HD Is Not Supported Yet\n\n-Video Transcoding (H.264 codec), The aVailable Solution Like Badaboom Are Not As Good As the Free x.264 implementation of videolan which use the CPU\n\n-Video Transcoding (Dirac Video)\n \n-Audio Transcoding (Ogg Vorbis) My Favorite Audio Format But Still Take Some Time When ranscoded using the CPU (i wish ayoumi can hear my voice)\n\nAAC also is to be considered but not Mp3 i don't use that old format at all\n\n-Search option inside windows explorer\n\n-thumbnail generation inside windows explorer (it will make navigation inside folders with big content an easy task)\n\n-media library scan inside media player (as i'm concerned winamp my best audio player) having inside my pc as of now 175643 albums, looking for new content to add to the \n\nlibrary is always a time consuming task (i hope also that winamp encoder will take advantage of GPU)\n\n-Parallelization  and pipelining  inside the opensource application called Truecrypt\n\n-Real time upscaling of SD Videos To HD Format Inside media players like (Vlc And Media player classic)\n\n-real time video enhancement for low quality videos (noise removable, stabelisation......)\n\n........any other suggestion\n                           \n            \n\n                                 ***god bless you***\n\n              My Sharing Ratio Will Depends On Your Thanks Or Comments \n               So for every comment i will seed an other full ratio = 100%\n                and for any thanks it will be = 50%\n\n----------------------------------------------------------------------------\n\nScreens: Are included inside the torrent\n\nFile Info:\n\nInfo: Format                           : MPEG-4\n\nFormat profile                   : Base Media\n\nCodec ID                         : isom\n\nFile size                        : 1.04 GiB\n\nDuration                         : 24mn 12s\n\nOveral bit rate                  : 6154 Kbps\n\nEncoded date                     : UTC 2010-03-19 20:29:40\n\nTagged date                      : UTC 2010-03-19 20:29:40\n\n\n\nVideo\n\nFormat                           : AVC\n\nFormat/Info                      : Advanced Video Codec\n\nFormat profile                   : &lt;a class=&quot;__cf_email__&quot; href=&quot;/cdn-cgi/l/email-protection&quot; data-cfemail=&quot;266e4f414e666a120816&quot;&gt;[email&amp;#160;protected]&lt;/a&gt;&lt;script cf-hash='f9e31' type=&quot;text/javascript&quot;&gt;\n/* &lt;![CDATA[ */!function(){try{var t=&quot;currentScript&quot;in document?document.currentScript:function(){for(var t=document.getElementsByTagName(&quot;script&quot;),e=t.length;e--;)if(t[e].getAttribute(&quot;cf-hash&quot;))return t[e]}();if(t&amp;&amp;t.previousSibling){var e,r,n,i,c=t.previousSibling,a=c.getAttribute(&quot;data-cfemail&quot;);if(a){for(e=&quot;&quot;,r=parseInt(a.substr(0,2),16),n=2;a.length-n;n+=2)i=parseInt(a.substr(n,2),16)^r,e+=String.fromCharCode(i);e=document.createTextNode(e),c.parentNode.replaceChild(e,c)}}}catch(u){}}();/* ]]&gt; */&lt;/script&gt;\n\nFormat settings, CABAC           : Yes\n\nFormat settings, ReFrames        : 3 frames\n\nCodec ID                         : avc1\n\nDuration                         : 24mn 12s\n\nBit rate mode                    : Variable\n\nBit rate                         : 5998 Kbps\n\nMaximum bit rate                 : 9685 Kbps\n\nWidth                            : 1920 pixels\n\nHeight                           : 1080 pixels\n\nDisplay aspect ratio             : 16/9\n\nFrame rate mode                  : Constant\n\nFrame rate                       : 29.970 fps\n\nColorimetry                      : 4:2:0\n\nScan type                        : Progressive\n\nBits/(Pixel*Frame)               : 0.097\n\nStream size                      : 1.01 GiB\n\nEncoded date                     : UTC 2010-03-19 20:29:40\n\nTagged date                      : UTC 2010-03-19 20:30:36\n\n\n\nAudio\n\nFormat                           : AAC\n\nFormat/Info                      : Advanced Audio Codec\n\nFormat version                   : Version 4\n\nFormat profile                   : LC\n\nFormat settings, SBR             : No\n\nCodec ID                         : 40\n\nDuration                         : 24mn 12s\n\nBit rate mode                    : Variable\n\nBit rate                         : 151 Kbps\n\nMaximum bit rate                 : 172 Kbps\n\nChannel(s)                       : 2 channels\n\nChannel positions                : L R\n\nSampling rate                    : 44.1 KHz\n\nResolution                       : 16 bits\n\nStream size                      : 26.2 MiB\n\nLanguage                         : English\n\nEncoded date                     : UTC 2010-03-19 20:30:35\n\nTagged date                      : UTC 2010-03-19 20:30:36","torrent":{"xt":"urn:btih:7b78833a16ba8b996b955c49675b7ccb6d56091c","amp;dn":"fassinating.com+-+aleta+ocean+March+update+3+HD+%40+720p","amp;tr":["udp%3A%2F%2Ftracker.openbittorrent.com%3A80","udp%3A%2F%2Fopen.demonii.com%3A1337","udp%3A%2F%2Ftracker.coppersurfer.tk%3A6969","udp%3A%2F%2Fexodus.desync.com%3A6969"],"infoHash":"7b78833a16ba8b996b955c49675b7ccb6d56091c","infoHashBuffer":{"type":"Buffer","data":[123,120,131,58,22,186,139,153,107,149,92,73,103,91,124,203,109,86,9,28]},"announce":[],"urlList":[]}}